HIERARCHY
ROOT Hips
{
	OFFSET 0.000000 100.481300 0.000000
	CHANNELS 6 Xposition Yposition Zposition Xrotation Yrotation Zrotation
	JOINT Spine
	{
		OFFSET -0.279200 12.230698 -2.892100
		CHANNELS 3 Xrotation Yrotation Zrotation
		JOINT Spine1
		{
			OFFSET -0.325700 14.269203 -3.374200
			CHANNELS 3 Xrotation Yrotation Zrotation
			JOINT Spine2
			{
				OFFSET -0.372300 16.307602 -0.352600
				CHANNELS 3 Xrotation Yrotation Zrotation
				JOINT Neck
				{
					OFFSET -0.418800 17.814194 8.416900
					CHANNELS 3 Xrotation Yrotation Zrotation
					JOINT Head
					{
						OFFSET 0.000000 7.031097 3.806800
						CHANNELS 3 Xrotation Yrotation Zrotation
						JOINT HeadTop_End
						{
							OFFSET 0.000000 24.646606 12.978600
							CHANNELS 3 Xrotation Yrotation Zrotation
							End Site
							{
								OFFSET 0.000000 27.854965 0.000000
							}
						}
					}
				}
				JOINT LeftShoulder
				{
					OFFSET 16.952999 14.495407 -7.737500
					CHANNELS 3 Xrotation Yrotation Zrotation
					JOINT LeftArm
					{
						OFFSET 9.308998 -2.777710 0.208600
						CHANNELS 3 Xrotation Yrotation Zrotation
						JOINT LeftForeArm
						{
							OFFSET 29.972298 0.000000 0.000000
							CHANNELS 3 Xrotation Yrotation Zrotation
							JOINT LeftHand
							{
								OFFSET 26.026505 0.000000 0.000000
								CHANNELS 3 Xrotation Yrotation Zrotation
								JOINT LeftHandThumb1
								{
									OFFSET 12.240501 -7.147949 9.207150
									CHANNELS 3 Xrotation Yrotation Zrotation
									JOINT LeftHandThumb2
									{
										OFFSET 4.138618 -2.389435 2.389433
										CHANNELS 3 Xrotation Yrotation Zrotation
										JOINT LeftHandThumb3
										{
											OFFSET 2.726913 -1.574387 1.574386
											CHANNELS 3 Xrotation Yrotation Zrotation
											JOINT LeftHandThumb4
											{
												OFFSET 3.941010 -2.275345 2.275342
												CHANNELS 3 Xrotation Yrotation Zrotation
												End Site
												{
													OFFSET -0.005798 5.087799 0.009903
												}
											}
										}
									}
								}
								JOINT LeftHandIndex1
								{
									OFFSET 24.424698 -1.985611 5.953459
									CHANNELS 3 Xrotation Yrotation Zrotation
									JOINT LeftHandIndex2
									{
										OFFSET 6.426697 0.000000 0.000000
										CHANNELS 3 Xrotation Yrotation Zrotation
										JOINT LeftHandIndex3
										{
											OFFSET 5.337898 0.000000 0.000000
											CHANNELS 3 Xrotation Yrotation Zrotation
											JOINT LeftHandIndex4
											{
												OFFSET 4.409401 0.000000 0.000000
												CHANNELS 3 Xrotation Yrotation Zrotation
												End Site
												{
													OFFSET 0.000000 4.409363 0.014373
												}
											}
										}
									}
								}
								JOINT LeftHandMiddle1
								{
									OFFSET 23.810104 0.000000 0.000000
									CHANNELS 3 Xrotation Yrotation Zrotation
									JOINT LeftHandMiddle2
									{
										OFFSET 7.176498 0.000000 0.000000
										CHANNELS 3 Xrotation Yrotation Zrotation
										JOINT LeftHandMiddle3
										{
											OFFSET 6.774902 0.000000 0.000000
											CHANNELS 3 Xrotation Yrotation Zrotation
											JOINT LeftHandMiddle4
											{
												OFFSET 5.403328 0.000000 0.000000
												CHANNELS 3 Xrotation Yrotation Zrotation
												End Site
												{
													OFFSET -0.027702 5.403244 0.017414
												}
											}
										}
									}
								}
								JOINT LeftHandRing1
								{
									OFFSET 22.908401 -0.839279 -6.020567
									CHANNELS 3 Xrotation Yrotation Zrotation
									JOINT LeftHandRing2
									{
										OFFSET 6.337502 0.000000 0.000000
										CHANNELS 3 Xrotation Yrotation Zrotation
										JOINT LeftHandRing3
										{
											OFFSET 5.779297 0.000000 0.000000
											CHANNELS 3 Xrotation Yrotation Zrotation
											JOINT LeftHandRing4
											{
												OFFSET 4.965698 0.000000 0.000000
												CHANNELS 3 Xrotation Yrotation Zrotation
												End Site
												{
													OFFSET 0.000000 4.965668 0.016186
												}
											}
										}
									}
								}
								JOINT LeftHandPinky1
								{
									OFFSET 20.037003 -1.530319 -10.950146
									CHANNELS 3 Xrotation Yrotation Zrotation
									JOINT LeftHandPinky2
									{
										OFFSET 5.254700 0.000000 0.000000
										CHANNELS 3 Xrotation Yrotation Zrotation
										JOINT LeftHandPinky3
										{
											OFFSET 4.810204 0.000000 0.000000
											CHANNELS 3 Xrotation Yrotation Zrotation
											JOINT LeftHandPinky4
											{
												OFFSET 3.647202 0.000000 0.000000
												CHANNELS 3 Xrotation Yrotation Zrotation
												End Site
												{
													OFFSET 0.000000 3.647186 0.011889
												}
											}
										}
									}
								}
							}
						}
					}
				}
				JOINT RightShoulder
				{
					OFFSET -15.141001 14.495407 -7.737500
					CHANNELS 3 Xrotation Yrotation Zrotation
					JOINT RightArm
					{
						OFFSET -9.308998 -2.777710 0.208500
						CHANNELS 3 Xrotation Yrotation Zrotation
						JOINT RightForeArm
						{
							OFFSET -29.972300 0.000000 0.000000
							CHANNELS 3 Xrotation Yrotation Zrotation
							JOINT RightHand
							{
								OFFSET -26.026505 0.000000 0.000000
								CHANNELS 3 Xrotation Yrotation Zrotation
								JOINT RightHandThumb1
								{
									OFFSET -12.240601 -7.148026 9.207092
									CHANNELS 3 Xrotation Yrotation Zrotation
									JOINT RightHandThumb2
									{
										OFFSET -4.138618 -2.389435 2.389433
										CHANNELS 3 Xrotation Yrotation Zrotation
										JOINT RightHandThumb3
										{
											OFFSET -2.726974 -1.574417 1.574421
											CHANNELS 3 Xrotation Yrotation Zrotation
											JOINT RightHandThumb4
											{
												OFFSET -3.941010 -2.275345 2.275343
												CHANNELS 3 Xrotation Yrotation Zrotation
												End Site
												{
													OFFSET 0.005814 5.087799 0.009927
												}
											}
										}
									}
								}
								JOINT RightHandIndex1
								{
									OFFSET -24.424698 -1.985657 5.953444
									CHANNELS 3 Xrotation Yrotation Zrotation
									JOINT RightHandIndex2
									{
										OFFSET -6.426697 0.000000 0.000000
										CHANNELS 3 Xrotation Yrotation Zrotation
										JOINT RightHandIndex3
										{
											OFFSET -5.337898 0.000000 0.000000
											CHANNELS 3 Xrotation Yrotation Zrotation
											JOINT RightHandIndex4
											{
												OFFSET -4.409401 0.000000 0.000000
												CHANNELS 3 Xrotation Yrotation Zrotation
												End Site
												{
													OFFSET 0.000000 4.409363 0.014408
												}
											}
										}
									}
								}
								JOINT RightHandMiddle1
								{
									OFFSET -23.810097 0.000000 0.000000
									CHANNELS 3 Xrotation Yrotation Zrotation
									JOINT RightHandMiddle2
									{
										OFFSET -7.176498 0.000000 0.000000
										CHANNELS 3 Xrotation Yrotation Zrotation
										JOINT RightHandMiddle3
										{
											OFFSET -6.774902 0.000000 0.000000
											CHANNELS 3 Xrotation Yrotation Zrotation
											JOINT RightHandMiddle4
											{
												OFFSET -5.403328 0.000000 0.000000
												CHANNELS 3 Xrotation Yrotation Zrotation
												End Site
												{
													OFFSET 0.027702 5.403244 0.017457
												}
											}
										}
									}
								}
								JOINT RightHandRing1
								{
									OFFSET -22.908302 -0.839325 -6.020576
									CHANNELS 3 Xrotation Yrotation Zrotation
									JOINT RightHandRing2
									{
										OFFSET -6.337502 0.000000 0.000000
										CHANNELS 3 Xrotation Yrotation Zrotation
										JOINT RightHandRing3
										{
											OFFSET -5.779297 0.000000 0.000000
											CHANNELS 3 Xrotation Yrotation Zrotation
											JOINT RightHandRing4
											{
												OFFSET -4.965698 0.000000 0.000000
												CHANNELS 3 Xrotation Yrotation Zrotation
												End Site
												{
													OFFSET 0.000000 4.965668 0.016226
												}
											}
										}
									}
								}
								JOINT RightHandPinky1
								{
									OFFSET -20.037003 -1.530334 -10.950259
									CHANNELS 3 Xrotation Yrotation Zrotation
									JOINT RightHandPinky2
									{
										OFFSET -5.254700 0.000000 0.000000
										CHANNELS 3 Xrotation Yrotation Zrotation
										JOINT RightHandPinky3
										{
											OFFSET -4.810204 0.000000 0.000000
											CHANNELS 3 Xrotation Yrotation Zrotation
											JOINT RightHandPinky4
											{
												OFFSET -3.647202 0.000000 0.000000
												CHANNELS 3 Xrotation Yrotation Zrotation
												End Site
												{
													OFFSET 0.000000 3.647186 0.011917
												}
											}
										}
									}
								}
							}
						}
					}
				}
			}
		}
	}
	JOINT LeftUpLeg
	{
		OFFSET 15.427100 -6.655098 0.678600
		CHANNELS 3 Xrotation Yrotation Zrotation
		JOINT LeftLeg
		{
			OFFSET 4.081073 -39.591068 13.024000
			CHANNELS 3 Xrotation Yrotation Zrotation
			JOINT LeftFoot
			{
				OFFSET -4.081074 -37.707932 -15.979700
				CHANNELS 3 Xrotation Yrotation Zrotation
				JOINT LeftToeBase
				{
					OFFSET 5.346399 -15.068900 20.645000
					CHANNELS 3 Xrotation Yrotation Zrotation
					JOINT LeftToe_End
					{
						OFFSET 2.754700 0.931300 11.300900
						CHANNELS 3 Xrotation Yrotation Zrotation
						End Site
						{
							OFFSET 0.000000 11.669021 0.000000
						}
					}
				}
			}
		}
	}
	JOINT RightUpLeg
	{
		OFFSET -15.569500 -6.655098 0.678600
		CHANNELS 3 Xrotation Yrotation Zrotation
		JOINT RightLeg
		{
			OFFSET -4.081825 -39.591045 13.023800
			CHANNELS 3 Xrotation Yrotation Zrotation
			JOINT RightFoot
			{
				OFFSET 4.081824 -37.707954 -15.979600
				CHANNELS 3 Xrotation Yrotation Zrotation
				JOINT RightToeBase
				{
					OFFSET -5.346400 -15.068900 20.645000
					CHANNELS 3 Xrotation Yrotation Zrotation
					JOINT RightToe_End
					{
						OFFSET -2.754700 0.931300 11.300900
						CHANNELS 3 Xrotation Yrotation Zrotation
						End Site
						{
							OFFSET 0.000000 11.669021 0.000000
						}
					}
				}
			}
		}
	}
}
MOTION
Frames: 4
Frame Time: 0.033333
0.494540 77.054321 -1.092220 3.871531 33.085873 2.292168 7.574155 0.930960 3.583874 14.644841 3.929836 -0.266825 14.680378 3.696159 -1.260993 1.776649 -3.577643 -5.376719 -27.898377 -16.872997 -13.922302 -0.000000 -0.000001 0.000001 5.641581 -13.472692 42.525700 -78.109026 -39.515667 -51.503509 -0.000001 -33.476629 -0.000003 -7.459031 0.367086 -1.212254 -3.132481 -24.253932 18.839969 7.016028 21.130889 3.454526 -0.579466 1.574996 2.538712 -0.000000 0.000000 0.000000 0.190160 1.610190 -13.469928 0.190166 1.610195 -13.469948 0.190167 1.610205 -13.469938 0.000000 0.000001 -0.000003 0.303476 2.025470 -17.041047 0.428219 2.394616 -20.274713 0.452963 2.460525 -20.859183 -0.000000 -0.000000 0.000001 0.632547 2.887623 -24.706847 0.886699 3.385072 -29.349292 0.938809 3.475959 -30.220271 -0.000001 -0.000000 0.000000 3.961948 7.448723 -37.718453 1.477489 0.180626 -38.380281 1.461768 4.246709 -37.973997 -0.000001 -0.000001 0.000001 -0.703485 -14.995706 0.780831 -25.286750 68.237531 -13.953990 -0.000001 23.881922 0.000000 -4.668179 1.598323 9.574131 -3.950209 21.654783 -20.768454 7.497670 -19.485288 3.162344 -1.273762 0.137326 -2.094873 -0.000002 -0.000003 -0.000001 0.153262 -1.454738 12.027674 0.153262 -1.454723 12.027681 0.153259 -1.454721 12.027675 -0.000001 0.000001 -0.000003 0.347403 -2.174383 18.152850 0.488334 -2.564267 21.560713 0.517324 -2.636386 22.199896 -0.000000 0.000000 0.000001 0.853850 -3.343448 28.644726 1.194429 -3.901658 34.030888 1.264082 -4.002597 35.041531 -0.000002 -0.000002 -0.000000 2.096841 -4.980096 45.645324 2.096836 -4.980087 45.645341 2.096854 -4.980100 45.645307 0.000000 -0.000001 0.000001 -18.067667 0.027936 16.579367 43.672622 -6.773975 4.729899 -36.078620 -13.504135 -21.833909 -5.833027 -0.000003 -0.000001 -0.000001 0.000000 0.000000 -48.821659 -0.805980 -35.071024 32.149021 7.879501 -2.474293 13.655595 1.091415 23.760346 -0.013996 0.000003 -0.000001 0.000000 -0.000002 -0.000000 
-1.217629 75.179497 0.399771 7.029993 34.294103 -0.042662 7.685234 1.039703 4.521704 15.208289 4.381701 1.573137 15.399869 4.090322 0.503388 0.742312 -3.427873 -3.354495 -33.145508 -13.091997 -14.677421 0.000001 0.000001 0.000001 3.334097 -8.662612 43.856371 -81.100717 -38.298298 -52.215854 0.000001 -36.609182 -0.000001 -7.069537 0.242223 -0.610872 -3.132486 -24.253932 18.839965 7.016026 21.130886 3.454524 -0.579467 1.574998 2.538714 -0.000002 0.000001 0.000001 0.190161 1.610190 -13.469930 0.190163 1.610196 -13.469947 0.190166 1.610207 -13.469940 0.000000 0.000001 -0.000001 0.303475 2.025470 -17.041049 0.428218 2.394614 -20.274708 0.452962 2.460526 -20.859184 -0.000001 0.000001 -0.000003 0.632549 2.887622 -24.706850 0.886701 3.385072 -29.349296 0.938811 3.475962 -30.220274 0.000000 0.000000 -0.000001 3.961947 7.448726 -37.718453 1.477485 0.180626 -38.380278 1.461766 4.246709 -37.973997 -0.000002 0.000001 -0.000002 -1.290701 -16.605240 -2.013856 -51.255437 70.015306 7.366701 -0.000001 18.898923 0.000001 -3.134378 3.848880 0.856682 -3.950210 21.654777 -20.768449 7.497671 -19.485295 3.162346 -1.273761 0.137325 -2.094872 -0.000000 0.000003 -0.000000 0.153262 -1.454741 12.027670 0.153262 -1.454723 12.027681 0.153262 -1.454720 12.027676 0.000004 0.000001 0.000002 0.347403 -2.174382 18.152845 0.488335 -2.564272 21.560716 0.517326 -2.636387 22.199892 0.000003 -0.000001 0.000001 0.853851 -3.343445 28.644721 1.194427 -3.901655 34.030885 1.264087 -4.002595 35.041534 0.000001 -0.000000 0.000000 2.096841 -4.980097 45.645328 2.096835 -4.980086 45.645341 2.096849 -4.980099 45.645311 0.000002 0.000000 0.000003 -22.356509 0.665826 20.143256 46.109436 -7.414123 3.581256 -35.224734 -9.430380 -22.730675 -7.224855 0.000005 0.000007 0.000000 0.000001 0.000000 -53.070198 0.762722 -34.954828 38.006243 6.620620 -1.300529 10.842849 0.180851 22.540193 -0.000037 0.000001 -0.000001 -0.000000 0.000001 -0.000000 
-2.595080 74.377342 1.647193 9.234297 34.608647 -1.627085 7.857762 0.976346 5.144149 15.765499 4.434798 2.777830 16.061299 4.085292 1.634191 1.066052 -3.192800 -0.851843 -35.238947 -11.004422 -12.071383 -0.000000 -0.000001 -0.000000 2.210325 -6.486447 44.419445 -82.172660 -38.572742 -51.513997 -0.000002 -35.577451 0.000002 -6.875002 0.187218 -0.344552 -3.132479 -24.253930 18.839969 7.016024 21.130886 3.454525 -0.579466 1.574996 2.538713 -0.000001 0.000001 0.000001 0.190161 1.610189 -13.469928 0.190164 1.610197 -13.469950 0.190165 1.610206 -13.469937 0.000001 0.000000 -0.000003 0.303477 2.025470 -17.041052 0.428221 2.394615 -20.274706 0.452964 2.460526 -20.859184 0.000001 -0.000000 0.000000 0.632550 2.887621 -24.706850 0.886702 3.385072 -29.349299 0.938808 3.475962 -30.220271 0.000000 0.000000 -0.000001 3.961948 7.448723 -37.718453 1.477488 0.180627 -38.380278 1.461768 4.246709 -37.973997 -0.000001 0.000000 -0.000002 -1.756573 -17.295806 -4.141686 -78.923833 68.193012 32.840912 0.000002 14.865403 -0.000003 -5.019562 4.851619 -9.264520 -3.950210 21.654782 -20.768450 7.497673 -19.485290 3.162344 -1.273760 0.137326 -2.094874 -0.000000 0.000000 -0.000000 0.153262 -1.454739 12.027671 0.153261 -1.454726 12.027682 0.153262 -1.454719 12.027681 -0.000001 -0.000001 0.000001 0.347404 -2.174383 18.152846 0.488334 -2.564269 21.560713 0.517325 -2.636385 22.199901 -0.000000 -0.000002 0.000000 0.853851 -3.343447 28.644721 1.194427 -3.901655 34.030885 1.264088 -4.002595 35.041531 0.000001 0.000002 -0.000000 2.096843 -4.980098 45.645324 2.096835 -4.980086 45.645341 2.096848 -4.980099 45.645311 -0.000000 -0.000001 -0.000002 -25.007781 1.635604 22.632817 47.054290 -7.990618 2.691624 -33.605699 -6.628005 -23.143447 -8.123363 -0.000007 0.000003 -0.000000 -0.000001 -0.000000 -55.663388 1.573379 -34.242709 41.201262 5.854207 -0.494917 9.046323 -0.228626 21.387590 -0.000006 -0.000012 0.000005 0.000000 0.000000 -0.000000 
-3.639136 74.584892 2.680081 10.750419 34.527392 -2.434949 7.965805 0.744965 5.395382 16.055888 4.028535 3.373203 16.390910 3.648615 2.195335 2.803842 -3.010520 1.762548 -34.691948 -10.824199 -7.646661 0.000001 -0.000002 0.000001 2.741284 -7.511607 44.291321 -81.158569 -40.370625 -49.305841 0.000000 -31.039887 -0.000004 -6.904272 0.193383 -0.415727 -3.132481 -24.253930 18.839965 7.016026 21.130887 3.454526 -0.579467 1.574997 2.538713 0.000000 0.000001 -0.000000 0.190160 1.610192 -13.469934 0.190165 1.610196 -13.469947 0.190167 1.610206 -13.469944 -0.000000 -0.000001 -0.000000 0.303477 2.025469 -17.041052 0.428220 2.394616 -20.274710 0.452963 2.460525 -20.859181 -0.000001 0.000001 0.000002 0.632550 2.887624 -24.706850 0.886702 3.385073 -29.349302 0.938810 3.475961 -30.220271 0.000001 0.000000 0.000000 3.961948 7.448725 -37.718449 1.477484 0.180628 -38.380281 1.461770 4.246708 -37.973997 -0.000000 -0.000001 0.000003 -1.904644 -16.903128 -5.239527 -94.279621 64.574507 48.155730 -0.000006 12.486630 0.000006 -9.295324 5.430783 -15.644847 -3.950211 21.654780 -20.768454 7.497669 -19.485293 3.162346 -1.273760 0.137322 -2.094870 0.000000 -0.000001 0.000001 0.153260 -1.454740 12.027673 0.153262 -1.454720 12.027684 0.153263 -1.454718 12.027675 0.000001 0.000001 -0.000000 0.347404 -2.174382 18.152850 0.488333 -2.564269 21.560715 0.517324 -2.636387 22.199896 0.000001 0.000001 0.000002 0.853851 -3.343447 28.644729 1.194427 -3.901655 34.030885 1.264086 -4.002599 35.041531 -0.000002 0.000001 -0.000000 2.096841 -4.980099 45.645324 2.096832 -4.980087 45.645341 2.096851 -4.980098 45.645311 -0.000000 -0.000000 -0.000001 -25.965452 2.589828 23.668504 46.126696 -8.304707 2.161718 -31.903882 -4.792178 -23.328147 -8.053789 0.000039 0.000003 0.000000 0.000001 0.000000 -56.977086 1.665595 -33.519915 42.284899 5.354289 0.098927 8.075372 -0.368062 20.162382 -0.000962 0.000008 -0.000005 0.000000 0.000000 -0.000000 
